<svg xmlns="http://www.w3.org/2000/svg" viewBox="0 0 853 853" width="853" height="853">
<title>h2-dom-w-helikoniach — plan frame</title>
<rect x="0" y="0" width="853" height="853" fill="#ffffff"/>
<rect x="0" y="0" width="853" height="853" stroke="#cccccc" fill="none" stroke-width="1"/>
<rect x="158" y="162" width="305.5" height="590" id="extent" stroke="#d11fa0" fill="none" stroke-width="2"/>
<rect x="158" y="189.13" width="301" height="562.88" id="envelope" stroke="#00a0b0" fill="none" stroke-width="1.5" stroke-dasharray="6 3"/>
<line x1="158" y1="0" x2="158" y2="853" stroke="#e0b0e0" fill="none" stroke-width="0.5"/>
<line x1="166" y1="0" x2="166" y2="853" stroke="#e0b0e0" fill="none" stroke-width="0.5"/>
<line x1="181" y1="0" x2="181" y2="853" stroke="#e0b0e0" fill="none" stroke-width="0.5"/>
<line x1="202" y1="0" x2="202" y2="853" stroke="#e0b0e0" fill="none" stroke-width="0.5"/>
<line x1="225" y1="0" x2="225" y2="853" stroke="#e0b0e0" fill="none" stroke-width="0.5"/>
<line x1="250.5" y1="0" x2="250.5" y2="853" stroke="#e0b0e0" fill="none" stroke-width="0.5"/>
<line x1="258" y1="0" x2="258" y2="853" stroke="#e0b0e0" fill="none" stroke-width="0.5"/>
<line x1="300" y1="0" x2="300" y2="853" stroke="#e0b0e0" fill="none" stroke-width="0.5"/>
<line x1="336" y1="0" x2="336" y2="853" stroke="#e0b0e0" fill="none" stroke-width="0.5"/>
<line x1="353.5" y1="0" x2="353.5" y2="853" stroke="#e0b0e0" fill="none" stroke-width="0.5"/>
<line x1="420" y1="0" x2="420" y2="853" stroke="#e0b0e0" fill="none" stroke-width="0.5"/>
<line x1="428.5" y1="0" x2="428.5" y2="853" stroke="#e0b0e0" fill="none" stroke-width="0.5"/>
<line x1="451" y1="0" x2="451" y2="853" stroke="#e0b0e0" fill="none" stroke-width="0.5"/>
<line x1="459" y1="0" x2="459" y2="853" stroke="#e0b0e0" fill="none" stroke-width="0.5"/>
<line x1="0" y1="162" x2="853" y2="162" stroke="#e0b0e0" fill="none" stroke-width="0.5"/>
<line x1="0" y1="189.13" x2="853" y2="189.13" stroke="#e0b0e0" fill="none" stroke-width="0.5"/>
<line x1="0" y1="204.5" x2="853" y2="204.5" stroke="#e0b0e0" fill="none" stroke-width="0.5"/>
<line x1="0" y1="226" x2="853" y2="226" stroke="#e0b0e0" fill="none" stroke-width="0.5"/>
<line x1="0" y1="257.5" x2="853" y2="257.5" stroke="#e0b0e0" fill="none" stroke-width="0.5"/>
<line x1="0" y1="273" x2="853" y2="273" stroke="#e0b0e0" fill="none" stroke-width="0.5"/>
<line x1="0" y1="293" x2="853" y2="293" stroke="#e0b0e0" fill="none" stroke-width="0.5"/>
<line x1="0" y1="301" x2="853" y2="301" stroke="#e0b0e0" fill="none" stroke-width="0.5"/>
<line x1="0" y1="330" x2="853" y2="330" stroke="#e0b0e0" fill="none" stroke-width="0.5"/>
<line x1="0" y1="367" x2="853" y2="367" stroke="#e0b0e0" fill="none" stroke-width="0.5"/>
<line x1="0" y1="404" x2="853" y2="404" stroke="#e0b0e0" fill="none" stroke-width="0.5"/>
<line x1="0" y1="443" x2="853" y2="443" stroke="#e0b0e0" fill="none" stroke-width="0.5"/>
<line x1="0" y1="452" x2="853" y2="452" stroke="#e0b0e0" fill="none" stroke-width="0.5"/>
<line x1="0" y1="469" x2="853" y2="469" stroke="#e0b0e0" fill="none" stroke-width="0.5"/>
<line x1="0" y1="478.5" x2="853" y2="478.5" stroke="#e0b0e0" fill="none" stroke-width="0.5"/>
<line x1="0" y1="488" x2="853" y2="488" stroke="#e0b0e0" fill="none" stroke-width="0.5"/>
<line x1="0" y1="512" x2="853" y2="512" stroke="#e0b0e0" fill="none" stroke-width="0.5"/>
<line x1="0" y1="521.5" x2="853" y2="521.5" stroke="#e0b0e0" fill="none" stroke-width="0.5"/>
<line x1="0" y1="537" x2="853" y2="537" stroke="#e0b0e0" fill="none" stroke-width="0.5"/>
<line x1="0" y1="551" x2="853" y2="551" stroke="#e0b0e0" fill="none" stroke-width="0.5"/>
<line x1="0" y1="575.5" x2="853" y2="575.5" stroke="#e0b0e0" fill="none" stroke-width="0.5"/>
<line x1="0" y1="609" x2="853" y2="609" stroke="#e0b0e0" fill="none" stroke-width="0.5"/>
<line x1="0" y1="623" x2="853" y2="623" stroke="#e0b0e0" fill="none" stroke-width="0.5"/>
<line x1="0" y1="630.5" x2="853" y2="630.5" stroke="#e0b0e0" fill="none" stroke-width="0.5"/>
<line x1="0" y1="646.5" x2="853" y2="646.5" stroke="#e0b0e0" fill="none" stroke-width="0.5"/>
<line x1="0" y1="683" x2="853" y2="683" stroke="#e0b0e0" fill="none" stroke-width="0.5"/>
<line x1="0" y1="698" x2="853" y2="698" stroke="#e0b0e0" fill="none" stroke-width="0.5"/>
<line x1="0" y1="710" x2="853" y2="710" stroke="#e0b0e0" fill="none" stroke-width="0.5"/>
<line x1="0" y1="726.5" x2="853" y2="726.5" stroke="#e0b0e0" fill="none" stroke-width="0.5"/>
<line x1="0" y1="752" x2="853" y2="752" stroke="#e0b0e0" fill="none" stroke-width="0.5"/>
</svg>
