<svg xmlns="http://www.w3.org/2000/svg" viewBox="0 0 853 853" width="853" height="853">
<title>dom-w-azaliach-005c — dimension lines</title>
<rect x="0" y="0" width="853" height="853" fill="#ffffff"/>
<line x1="494.5" y1="132" x2="523.8" y2="132" id="chain-horizontal-132-7d1cab9506" stroke="#888888" fill="none" stroke-width="1"/>
<line x1="494.5" y1="135" x2="523.8" y2="135" stroke="#dddddd" fill="none" stroke-width="2" data-origin="UNRESOLVED" data-value=""/>
<line x1="183.5" y1="166" x2="595.5" y2="166" id="chain-horizontal-166-d76cc85c23" stroke="#888888" fill="none" stroke-width="1"/>
<line x1="183.5" y1="169" x2="337" y2="169" stroke="#dddddd" fill="none" stroke-width="2" data-origin="UNRESOLVED" data-value=""/>
<line x1="337" y1="169" x2="430.5" y2="169" stroke="#dddddd" fill="none" stroke-width="2" data-origin="UNRESOLVED" data-value=""/>
<line x1="430.5" y1="169" x2="518" y2="169" stroke="#dddddd" fill="none" stroke-width="2" data-origin="UNRESOLVED" data-value=""/>
<line x1="518" y1="169" x2="595.5" y2="169" stroke="#dddddd" fill="none" stroke-width="2" data-origin="UNRESOLVED" data-value=""/>
<line x1="183.5" y1="170" x2="595.5" y2="170" id="chain-horizontal-170-25347cdeb5" stroke="#888888" fill="none" stroke-width="1"/>
<line x1="183.5" y1="173" x2="337" y2="173" stroke="#dddddd" fill="none" stroke-width="2" data-origin="UNRESOLVED" data-value=""/>
<line x1="337" y1="173" x2="430" y2="173" stroke="#dddddd" fill="none" stroke-width="2" data-origin="UNRESOLVED" data-value=""/>
<line x1="430" y1="173" x2="518" y2="173" stroke="#dddddd" fill="none" stroke-width="2" data-origin="UNRESOLVED" data-value=""/>
<line x1="518" y1="173" x2="595.5" y2="173" stroke="#dddddd" fill="none" stroke-width="2" data-origin="UNRESOLVED" data-value=""/>
<line x1="676.5" y1="206" x2="761" y2="206" id="chain-horizontal-206-2b07790c62" stroke="#888888" fill="none" stroke-width="1"/>
<line x1="676.5" y1="209" x2="761" y2="209" stroke="#dddddd" fill="none" stroke-width="2" data-origin="UNRESOLVED" data-value=""/>
<line x1="156" y1="215.5" x2="242" y2="215.5" id="chain-horizontal-216-c604db9071" stroke="#888888" fill="none" stroke-width="1"/>
<line x1="156" y1="218.5" x2="168" y2="218.5" stroke="#dddddd" fill="none" stroke-width="2" data-origin="UNRESOLVED" data-value=""/>
<line x1="168" y1="218.5" x2="242" y2="218.5" stroke="#dddddd" fill="none" stroke-width="2" data-origin="UNRESOLVED" data-value=""/>
<line x1="35" y1="253.5" x2="99.5" y2="253.5" id="chain-horizontal-254-8a96a2e1ce" stroke="#888888" fill="none" stroke-width="1"/>
<line x1="35" y1="256.5" x2="65.5" y2="256.5" stroke="#1f5fd1" fill="none" stroke-width="2" data-origin="READ" data-value="80"/>
<line x1="65.5" y1="256.5" x2="73" y2="256.5" stroke="#dddddd" fill="none" stroke-width="2" data-origin="UNRESOLVED" data-value=""/>
<line x1="73" y1="256.5" x2="85.5" y2="256.5" stroke="#dddddd" fill="none" stroke-width="2" data-origin="UNRESOLVED" data-value=""/>
<line x1="85.5" y1="256.5" x2="99.5" y2="256.5" stroke="#dddddd" fill="none" stroke-width="2" data-origin="UNRESOLVED" data-value=""/>
<line x1="243" y1="266" x2="277" y2="266" id="chain-horizontal-266-4b4343f92b" stroke="#888888" fill="none" stroke-width="1"/>
<line x1="243" y1="269" x2="277" y2="269" stroke="#dddddd" fill="none" stroke-width="2" data-origin="UNRESOLVED" data-value=""/>
<line x1="86" y1="317" x2="172.5" y2="317" id="chain-horizontal-317-79b7d740df" stroke="#888888" fill="none" stroke-width="1"/>
<line x1="86" y1="320" x2="172.5" y2="320" stroke="#dddddd" fill="none" stroke-width="2" data-origin="UNRESOLVED" data-value=""/>
<line x1="35" y1="339.5" x2="99.5" y2="339.5" id="chain-horizontal-340-595d7a453f" stroke="#888888" fill="none" stroke-width="1"/>
<line x1="35" y1="342.5" x2="65.5" y2="342.5" stroke="#1f5fd1" fill="none" stroke-width="2" data-origin="READ" data-value="80"/>
<line x1="65.5" y1="342.5" x2="73" y2="342.5" stroke="#dddddd" fill="none" stroke-width="2" data-origin="UNRESOLVED" data-value=""/>
<line x1="73" y1="342.5" x2="85.5" y2="342.5" stroke="#dddddd" fill="none" stroke-width="2" data-origin="UNRESOLVED" data-value=""/>
<line x1="85.5" y1="342.5" x2="99.5" y2="342.5" stroke="#dddddd" fill="none" stroke-width="2" data-origin="UNRESOLVED" data-value=""/>
<line x1="674" y1="359" x2="769" y2="359" id="chain-horizontal-359-5f05e7dd04" stroke="#888888" fill="none" stroke-width="1"/>
<line x1="674" y1="362" x2="769" y2="362" stroke="#dddddd" fill="none" stroke-width="2" data-origin="UNRESOLVED" data-value=""/>
<line x1="304" y1="361.5" x2="340" y2="361.5" id="chain-horizontal-362-9b11d37e79" stroke="#888888" fill="none" stroke-width="1"/>
<line x1="304" y1="364.5" x2="340" y2="364.5" stroke="#dddddd" fill="none" stroke-width="2" data-origin="UNRESOLVED" data-value=""/>
<line x1="89.5" y1="371" x2="173" y2="371" id="chain-horizontal-371-287d79c969" stroke="#888888" fill="none" stroke-width="1"/>
<line x1="89.5" y1="374" x2="110" y2="374" stroke="#dddddd" fill="none" stroke-width="2" data-origin="UNRESOLVED" data-value=""/>
<line x1="110" y1="374" x2="173" y2="374" stroke="#dddddd" fill="none" stroke-width="2" data-origin="UNRESOLVED" data-value=""/>
<line x1="91" y1="374" x2="172.5" y2="374" id="chain-horizontal-374-3e8e80193f" stroke="#888888" fill="none" stroke-width="1"/>
<line x1="91" y1="377" x2="172.5" y2="377" stroke="#dddddd" fill="none" stroke-width="2" data-origin="UNRESOLVED" data-value=""/>
<line x1="304" y1="375" x2="329" y2="375" id="chain-horizontal-375-af24bf013e" stroke="#888888" fill="none" stroke-width="1"/>
<line x1="304" y1="378" x2="329" y2="378" stroke="#dddddd" fill="none" stroke-width="2" data-origin="UNRESOLVED" data-value=""/>
<line x1="592.5" y1="381" x2="621" y2="381" id="chain-horizontal-381-a3707f5c02" stroke="#888888" fill="none" stroke-width="1"/>
<line x1="592.5" y1="384" x2="621" y2="384" stroke="#dddddd" fill="none" stroke-width="2" data-origin="UNRESOLVED" data-value=""/>
<line x1="333.5" y1="395" x2="362" y2="395" id="chain-horizontal-395-6cfda4c8ec" stroke="#888888" fill="none" stroke-width="1"/>
<line x1="333.5" y1="398" x2="362" y2="398" stroke="#dddddd" fill="none" stroke-width="2" data-origin="UNRESOLVED" data-value=""/>
<line x1="276" y1="403" x2="330" y2="403" id="chain-horizontal-403-e0797d9381" stroke="#888888" fill="none" stroke-width="1"/>
<line x1="276" y1="406" x2="304" y2="406" stroke="#dddddd" fill="none" stroke-width="2" data-origin="UNRESOLVED" data-value=""/>
<line x1="304" y1="406" x2="330" y2="406" stroke="#dddddd" fill="none" stroke-width="2" data-origin="UNRESOLVED" data-value=""/>
<line x1="333.5" y1="409" x2="406" y2="409" id="chain-horizontal-409-5b42a5c1fb" stroke="#888888" fill="none" stroke-width="1"/>
<line x1="333.5" y1="412" x2="363" y2="412" stroke="#dddddd" fill="none" stroke-width="2" data-origin="UNRESOLVED" data-value=""/>
<line x1="363" y1="412" x2="406" y2="412" stroke="#dddddd" fill="none" stroke-width="2" data-origin="UNRESOLVED" data-value=""/>
<line x1="674.5" y1="412.5" x2="769" y2="412.5" id="chain-horizontal-413-bdd173fa1e" stroke="#888888" fill="none" stroke-width="1"/>
<line x1="674.5" y1="415.5" x2="769" y2="415.5" stroke="#dddddd" fill="none" stroke-width="2" data-origin="UNRESOLVED" data-value=""/>
<line x1="136" y1="414" x2="171.5" y2="414" id="chain-horizontal-414-c65da67022" stroke="#888888" fill="none" stroke-width="1"/>
<line x1="136" y1="417" x2="171.5" y2="417" stroke="#dddddd" fill="none" stroke-width="2" data-origin="UNRESOLVED" data-value=""/>
<line x1="329.5" y1="423" x2="389" y2="423" id="chain-horizontal-423-47f9264348" stroke="#888888" fill="none" stroke-width="1"/>
<line x1="329.5" y1="426" x2="389" y2="426" stroke="#dddddd" fill="none" stroke-width="2" data-origin="UNRESOLVED" data-value=""/>
<line x1="242.5" y1="438" x2="272" y2="438" id="chain-horizontal-438-2f5d679dd9" stroke="#888888" fill="none" stroke-width="1"/>
<line x1="242.5" y1="441" x2="272" y2="441" stroke="#dddddd" fill="none" stroke-width="2" data-origin="UNRESOLVED" data-value=""/>
<line x1="554" y1="442" x2="596" y2="442" id="chain-horizontal-442-7ef2ef66d6" stroke="#888888" fill="none" stroke-width="1"/>
<line x1="554" y1="445" x2="596" y2="445" stroke="#dddddd" fill="none" stroke-width="2" data-origin="UNRESOLVED" data-value=""/>
<line x1="334" y1="463" x2="350" y2="463" id="chain-horizontal-463-5837cbb53e" stroke="#888888" fill="none" stroke-width="1"/>
<line x1="334" y1="466" x2="350" y2="466" stroke="#dddddd" fill="none" stroke-width="2" data-origin="UNRESOLVED" data-value=""/>
<line x1="490" y1="485" x2="554" y2="485" id="chain-horizontal-485-2e94d2c95d" stroke="#888888" fill="none" stroke-width="1"/>
<line x1="490" y1="488" x2="554" y2="488" stroke="#dddddd" fill="none" stroke-width="2" data-origin="UNRESOLVED" data-value=""/>
<line x1="490" y1="493" x2="554" y2="493" id="chain-horizontal-493-7696b7c0a9" stroke="#888888" fill="none" stroke-width="1"/>
<line x1="490" y1="496" x2="554" y2="496" stroke="#dddddd" fill="none" stroke-width="2" data-origin="UNRESOLVED" data-value=""/>
<line x1="333" y1="513" x2="596" y2="513" id="chain-horizontal-513-81990721d0" stroke="#888888" fill="none" stroke-width="1"/>
<line x1="333" y1="516" x2="497" y2="516" stroke="#dddddd" fill="none" stroke-width="2" data-origin="UNRESOLVED" data-value=""/>
<line x1="497" y1="516" x2="596" y2="516" stroke="#dddddd" fill="none" stroke-width="2" data-origin="UNRESOLVED" data-value=""/>
<line x1="157.5" y1="597" x2="196.5" y2="597" id="chain-horizontal-597-178f255b00" stroke="#888888" fill="none" stroke-width="1"/>
<line x1="157.5" y1="600" x2="196.5" y2="600" stroke="#dddddd" fill="none" stroke-width="2" data-origin="UNRESOLVED" data-value=""/>
<line x1="175.5" y1="616" x2="344" y2="616" id="chain-horizontal-616-e34c7b49e4" stroke="#888888" fill="none" stroke-width="1"/>
<line x1="175.5" y1="619" x2="214" y2="619" stroke="#dddddd" fill="none" stroke-width="2" data-origin="UNRESOLVED" data-value=""/>
<line x1="214" y1="619" x2="344" y2="619" stroke="#dddddd" fill="none" stroke-width="2" data-origin="UNRESOLVED" data-value=""/>
<line x1="77" y1="645.5" x2="633" y2="645.5" id="chain-horizontal-646-8fa14096d8" stroke="#888888" fill="none" stroke-width="1"/>
<line x1="77" y1="648.5" x2="205.5" y2="648.5" stroke="#9a9a9a" fill="none" stroke-width="2" data-origin="DERIVED" data-value="317.116926"/>
<line x1="205.5" y1="648.5" x2="633" y2="648.5" stroke="#1f5fd1" fill="none" stroke-width="2" data-origin="READ" data-value="1055"/>
<line x1="110" y1="318" x2="110" y2="371.5" id="chain-vertical-110-7e62bccbe1" stroke="#888888" fill="none" stroke-width="1"/>
<line x1="113" y1="318" x2="113" y2="371.5" stroke="#dddddd" fill="none" stroke-width="2" data-origin="UNRESOLVED" data-value=""/>
<line x1="135" y1="419.5" x2="135" y2="506.5" id="chain-vertical-135-f4d02cfd76" stroke="#888888" fill="none" stroke-width="1"/>
<line x1="138" y1="419.5" x2="138" y2="506.5" stroke="#dddddd" fill="none" stroke-width="2" data-origin="UNRESOLVED" data-value=""/>
<line x1="168" y1="373.5" x2="168" y2="413" id="chain-vertical-168-c4e25bb865" stroke="#888888" fill="none" stroke-width="1"/>
<line x1="171" y1="373.5" x2="171" y2="413" stroke="#dddddd" fill="none" stroke-width="2" data-origin="UNRESOLVED" data-value=""/>
<line x1="181" y1="385.5" x2="181" y2="418" id="chain-vertical-181-41acc88f7f" stroke="#888888" fill="none" stroke-width="1"/>
<line x1="184" y1="385.5" x2="184" y2="407" stroke="#dddddd" fill="none" stroke-width="2" data-origin="UNRESOLVED" data-value=""/>
<line x1="184" y1="407" x2="184" y2="418" stroke="#dddddd" fill="none" stroke-width="2" data-origin="UNRESOLVED" data-value=""/>
<line x1="190" y1="387.5" x2="190" y2="418" id="chain-vertical-190-f21eeb37fd" stroke="#888888" fill="none" stroke-width="1"/>
<line x1="193" y1="387.5" x2="193" y2="407" stroke="#dddddd" fill="none" stroke-width="2" data-origin="UNRESOLVED" data-value=""/>
<line x1="193" y1="407" x2="193" y2="418" stroke="#dddddd" fill="none" stroke-width="2" data-origin="UNRESOLVED" data-value=""/>
<line x1="204" y1="508.5" x2="204" y2="543" id="chain-vertical-204-85b636bedb" stroke="#888888" fill="none" stroke-width="1"/>
<line x1="207" y1="508.5" x2="207" y2="543" stroke="#dddddd" fill="none" stroke-width="2" data-origin="UNRESOLVED" data-value=""/>
<line x1="24" y1="159.5" x2="24" y2="519" id="chain-vertical-24-5e084c34da" stroke="#888888" fill="none" stroke-width="1"/>
<line x1="27" y1="159.5" x2="27" y2="519" stroke="#dddddd" fill="none" stroke-width="2" data-origin="UNRESOLVED" data-value=""/>
<line x1="240" y1="379" x2="240" y2="506.5" id="chain-vertical-240-babf7ca3d2" stroke="#888888" fill="none" stroke-width="1"/>
<line x1="243" y1="379" x2="243" y2="433.5" stroke="#dddddd" fill="none" stroke-width="2" data-origin="UNRESOLVED" data-value=""/>
<line x1="243" y1="433.5" x2="243" y2="506.5" stroke="#dddddd" fill="none" stroke-width="2" data-origin="UNRESOLVED" data-value=""/>
<line x1="278" y1="172.5" x2="278" y2="215.5" id="chain-vertical-278-b31925320c" stroke="#888888" fill="none" stroke-width="1"/>
<line x1="281" y1="172.5" x2="281" y2="192.5" stroke="#dddddd" fill="none" stroke-width="2" data-origin="UNRESOLVED" data-value=""/>
<line x1="281" y1="192.5" x2="281" y2="215.5" stroke="#dddddd" fill="none" stroke-width="2" data-origin="UNRESOLVED" data-value=""/>
<line x1="304" y1="362.5" x2="304" y2="426" id="chain-vertical-304-b9697064a4" stroke="#888888" fill="none" stroke-width="1"/>
<line x1="307" y1="362.5" x2="307" y2="375.5" stroke="#dddddd" fill="none" stroke-width="2" data-origin="UNRESOLVED" data-value=""/>
<line x1="307" y1="375.5" x2="307" y2="389.5" stroke="#dddddd" fill="none" stroke-width="2" data-origin="UNRESOLVED" data-value=""/>
<line x1="307" y1="389.5" x2="307" y2="403" stroke="#dddddd" fill="none" stroke-width="2" data-origin="UNRESOLVED" data-value=""/>
<line x1="307" y1="403" x2="307" y2="426" stroke="#dddddd" fill="none" stroke-width="2" data-origin="UNRESOLVED" data-value=""/>
<line x1="324" y1="362.5" x2="324" y2="421.08" id="chain-vertical-324-2a46cc503f" stroke="#888888" fill="none" stroke-width="1"/>
<line x1="327" y1="362.5" x2="327" y2="375.5" stroke="#dddddd" fill="none" stroke-width="2" data-origin="UNRESOLVED" data-value=""/>
<line x1="327" y1="375.5" x2="327" y2="403" stroke="#dddddd" fill="none" stroke-width="2" data-origin="UNRESOLVED" data-value=""/>
<line x1="327" y1="403" x2="327" y2="421.08" stroke="#dddddd" fill="none" stroke-width="2" data-origin="UNRESOLVED" data-value=""/>
<line x1="427" y1="418" x2="427" y2="506.5" id="chain-vertical-427-a2971b5157" stroke="#888888" fill="none" stroke-width="1"/>
<line x1="430" y1="418" x2="430" y2="506.5" stroke="#dddddd" fill="none" stroke-width="2" data-origin="UNRESOLVED" data-value=""/>
<line x1="494" y1="209" x2="494" y2="298" id="chain-vertical-494-39ef7be62a" stroke="#888888" fill="none" stroke-width="1"/>
<line x1="497" y1="209" x2="497" y2="266" stroke="#dddddd" fill="none" stroke-width="2" data-origin="UNRESOLVED" data-value=""/>
<line x1="497" y1="266" x2="497" y2="298" stroke="#dddddd" fill="none" stroke-width="2" data-origin="UNRESOLVED" data-value=""/>
<line x1="542.5" y1="209" x2="542.5" y2="298" id="chain-vertical-543-0565996483" stroke="#888888" fill="none" stroke-width="1"/>
<line x1="545.5" y1="209" x2="545.5" y2="275.5" stroke="#dddddd" fill="none" stroke-width="2" data-origin="UNRESOLVED" data-value=""/>
<line x1="545.5" y1="275.5" x2="545.5" y2="285" stroke="#dddddd" fill="none" stroke-width="2" data-origin="UNRESOLVED" data-value=""/>
<line x1="545.5" y1="285" x2="545.5" y2="298" stroke="#dddddd" fill="none" stroke-width="2" data-origin="UNRESOLVED" data-value=""/>
<line x1="554" y1="442" x2="554" y2="493.5" id="chain-vertical-554-28b268416a" stroke="#888888" fill="none" stroke-width="1"/>
<line x1="557" y1="442" x2="557" y2="485" stroke="#dddddd" fill="none" stroke-width="2" data-origin="UNRESOLVED" data-value=""/>
<line x1="557" y1="485" x2="557" y2="493.5" stroke="#dddddd" fill="none" stroke-width="2" data-origin="UNRESOLVED" data-value=""/>
<line x1="622" y1="340.5" x2="622" y2="479.5" id="chain-vertical-622-a3fba4dc66" stroke="#888888" fill="none" stroke-width="1"/>
<line x1="625" y1="340.5" x2="625" y2="382.5" stroke="#dddddd" fill="none" stroke-width="2" data-origin="UNRESOLVED" data-value=""/>
<line x1="625" y1="382.5" x2="625" y2="479.5" stroke="#dddddd" fill="none" stroke-width="2" data-origin="UNRESOLVED" data-value=""/>
<line x1="673" y1="357" x2="673" y2="390.5" id="chain-vertical-673-18914a1d88" stroke="#888888" fill="none" stroke-width="1"/>
<line x1="676" y1="357" x2="676" y2="390.5" stroke="#dddddd" fill="none" stroke-width="2" data-origin="UNRESOLVED" data-value=""/>
</svg>
