<svg xmlns="http://www.w3.org/2000/svg" viewBox="0 0 853 853" width="853" height="853">
<title>willa-miranda — selected layout</title>
<rect x="0" y="0" width="853" height="853" fill="#ffffff"/>
<rect x="234.5" y="84.5" width="559.5" height="526" stroke="#d11fa0" fill="none" stroke-width="1" stroke-dasharray="4 3"/>
<rect x="234.5" y="184.44" width="559.5" height="316.56" id="region-built-0-6" stroke="none" fill="#2f9a5a" opacity="0.3"/>
<rect x="544.5" y="501" width="231.5" height="109.5" id="region-built-21-29" stroke="none" fill="#2f9a5a" opacity="0.3"/>
<rect x="387" y="84.5" width="184.5" height="99.94" id="region-built-10-0" stroke="none" fill="#2f9a5a" opacity="0.3"/>
<rect x="571.5" y="121" width="127.5" height="53" id="region-built-22-1" stroke="none" fill="#2f9a5a" opacity="0.3"/>
<rect x="336.5" y="501" width="91.5" height="18" id="region-built-5-29" stroke="none" fill="#2f9a5a" opacity="0.3"/>
<rect x="604" y="174" width="86.5" height="10.44" id="region-built-23-5" stroke="none" fill="#2f9a5a" opacity="0.3"/>
<rect x="498.5" y="501" width="46" height="18" id="region-built-17-29" stroke="none" fill="#2f9a5a" opacity="0.3"/>
<rect x="533" y="559" width="11.5" height="51.5" id="region-built-20-33" stroke="none" fill="#2f9a5a" opacity="0.3"/>
<rect x="428" y="501" width="19.5" height="18" id="region-recess-13-29" stroke="none" fill="#e08a00" opacity="0.3"/>
<rect x="571.5" y="174" width="32.5" height="10.44" id="region-recess-22-5" stroke="none" fill="#e08a00" opacity="0.3"/>
<rect x="776" y="501" width="18" height="18" id="region-built-30-29" stroke="none" fill="#2f9a5a" opacity="0.3"/>
<rect x="320" y="501" width="16.5" height="18" id="region-recess-4-29" stroke="none" fill="#e08a00" opacity="0.3"/>
<rect x="483" y="501" width="15.5" height="18" id="region-recess-16-29" stroke="none" fill="#e08a00" opacity="0.3"/>
<rect x="533" y="519" width="11.5" height="16" id="region-recess-20-30" stroke="none" fill="#e08a00" opacity="0.3"/>
<rect x="533" y="544" width="11.5" height="15" id="region-recess-20-32" stroke="none" fill="#e08a00" opacity="0.3"/>
<rect x="776" y="519" width="6.5" height="16" id="region-recess-30-30" stroke="none" fill="#e08a00" opacity="0.3"/>
<rect x="378" y="174" width="9" height="10.44" id="region-recess-9-5" stroke="none" fill="#e08a00" opacity="0.3"/>
<rect x="690.5" y="174" width="8.5" height="10.44" id="region-recess-26-5" stroke="none" fill="#e08a00" opacity="0.3"/>
<rect x="234.5" y="184.44" width="559.5" height="316.56" id="mass-0" stroke="#1f5fd1" fill="none" stroke-width="2.5"/>
<rect x="544.5" y="501" width="231.5" height="109.5" id="mass-1" stroke="#1f5fd1" fill="none" stroke-width="2.5"/>
<rect x="387" y="84.5" width="184.5" height="99.94" id="mass-2" stroke="#1f5fd1" fill="none" stroke-width="2.5"/>
<rect x="571.5" y="121" width="127.5" height="53" id="mass-3" stroke="#1f5fd1" fill="none" stroke-width="2.5"/>
</svg>
