<svg xmlns="http://www.w3.org/2000/svg" viewBox="0 0 962 1202" width="962" height="1202">
<title>aster-viii — plan frame</title>
<rect x="0" y="0" width="962" height="1202" fill="#ffffff"/>
<rect x="0" y="0" width="962" height="1202" stroke="#cccccc" fill="none" stroke-width="1"/>
<rect x="116" y="325" width="776.99" height="628.75" id="extent" stroke="#d11fa0" fill="none" stroke-width="2"/>
<rect x="124" y="333" width="760.5" height="621.25" id="envelope" stroke="#00a0b0" fill="none" stroke-width="1.5" stroke-dasharray="6 3"/>
<line x1="124" y1="0" x2="124" y2="1202" stroke="#e0b0e0" fill="none" stroke-width="0.5"/>
<line x1="583.5" y1="0" x2="583.5" y2="1202" stroke="#e0b0e0" fill="none" stroke-width="0.5"/>
<line x1="669.5" y1="0" x2="669.5" y2="1202" stroke="#e0b0e0" fill="none" stroke-width="0.5"/>
<line x1="733.75" y1="0" x2="733.75" y2="1202" stroke="#e0b0e0" fill="none" stroke-width="0.5"/>
<line x1="884.5" y1="0" x2="884.5" y2="1202" stroke="#e0b0e0" fill="none" stroke-width="0.5"/>
<line x1="0" y1="333" x2="962" y2="333" stroke="#e0b0e0" fill="none" stroke-width="0.5"/>
<line x1="0" y1="463.5" x2="962" y2="463.5" stroke="#e0b0e0" fill="none" stroke-width="0.5"/>
<line x1="0" y1="573" x2="962" y2="573" stroke="#e0b0e0" fill="none" stroke-width="0.5"/>
<line x1="0" y1="616.5" x2="962" y2="616.5" stroke="#e0b0e0" fill="none" stroke-width="0.5"/>
<line x1="0" y1="702.5" x2="962" y2="702.5" stroke="#e0b0e0" fill="none" stroke-width="0.5"/>
<line x1="0" y1="721" x2="962" y2="721" stroke="#e0b0e0" fill="none" stroke-width="0.5"/>
<line x1="0" y1="767" x2="962" y2="767" stroke="#e0b0e0" fill="none" stroke-width="0.5"/>
<line x1="0" y1="872.25" x2="962" y2="872.25" stroke="#e0b0e0" fill="none" stroke-width="0.5"/>
<line x1="0" y1="901" x2="962" y2="901" stroke="#e0b0e0" fill="none" stroke-width="0.5"/>
<line x1="0" y1="934.75" x2="962" y2="934.75" stroke="#e0b0e0" fill="none" stroke-width="0.5"/>
</svg>
