<svg xmlns="http://www.w3.org/2000/svg" width="620.00" height="530.00" viewBox="0 0 620.00 530.00" font-family="sans-serif">
<rect width="100%" height="100%" fill="#fbfaf8"/>
<text x="30" y="18" font-size="13" font-weight="bold">Carport with a shed roof against the house, on two posts and a beam</text>
<polygon points="450.00,334.00 590.00,334.00 590.00,86.00 450.00,86.00" fill="rgb(227,223,217)" stroke="#9e9e9e" stroke-width="0.8"><title>carport-plane 5°</title></polygon>
<text x="520.00" y="210.00" font-size="9" text-anchor="middle" fill="#37474f">carport-plane · 5.00°</text>
<line x1="520.00" y1="210.00" x2="544.00" y2="210.00" stroke="#37474f" stroke-width="1" marker-end="url(#fall)"/>
<polygon points="30.00,390.00 470.00,390.00 470.00,210.00 30.00,210.00" fill="rgb(179,175,169)" stroke="#9e9e9e" stroke-width="0.8"><title>roof-main-plane-front 35°</title></polygon>
<text x="250.00" y="300.00" font-size="9" text-anchor="middle" fill="#37474f">roof-main-plane-front · 35.00°</text>
<line x1="250.00" y1="300.00" x2="250.00" y2="324.00" stroke="#37474f" stroke-width="1" marker-end="url(#fall)"/>
<polygon points="30.00,210.00 470.00,210.00 470.00,30.00 30.00,30.00" fill="rgb(179,175,169)" stroke="#9e9e9e" stroke-width="0.8"><title>roof-main-plane-rear 35°</title></polygon>
<text x="250.00" y="120.00" font-size="9" text-anchor="middle" fill="#37474f">roof-main-plane-rear · 35.00°</text>
<line x1="250.00" y1="120.00" x2="250.00" y2="96.00" stroke="#37474f" stroke-width="1" marker-end="url(#fall)"/>
<line x1="450.00" y1="334.00" x2="590.00" y2="334.00" stroke="#2e7d32" stroke-width="2"><title>carport-verge-south VERGE carport-plane</title></line>
<line x1="590.00" y1="86.00" x2="450.00" y2="86.00" stroke="#2e7d32" stroke-width="2"><title>carport-verge-north VERGE carport-plane</title></line>
<line x1="590.00" y1="334.00" x2="590.00" y2="86.00" stroke="#212121" stroke-width="2"><title>carport-eave EAVE carport-plane</title></line>
<line x1="450.00" y1="86.00" x2="450.00" y2="334.00" stroke="#8d6e63" stroke-width="2" stroke-dasharray="4 2"><title>carport-abutment ABUTMENT carport-plane</title></line>
<line x1="30.00" y1="210.00" x2="470.00" y2="210.00" stroke="#b3261e" stroke-width="3"><title>roof-main-ridge RIDGE roof-main-plane-front/roof-main-plane-rear</title></line>
<line x1="30.00" y1="390.00" x2="30.00" y2="210.00" stroke="#2e7d32" stroke-width="2"><title>roof-main-verge-front-west VERGE roof-main-plane-front</title></line>
<line x1="470.00" y1="210.00" x2="470.00" y2="390.00" stroke="#2e7d32" stroke-width="2"><title>roof-main-verge-front-east VERGE roof-main-plane-front</title></line>
<line x1="30.00" y1="210.00" x2="30.00" y2="30.00" stroke="#2e7d32" stroke-width="2"><title>roof-main-verge-rear-west VERGE roof-main-plane-rear</title></line>
<line x1="470.00" y1="30.00" x2="470.00" y2="210.00" stroke="#2e7d32" stroke-width="2"><title>roof-main-verge-rear-east VERGE roof-main-plane-rear</title></line>
<line x1="30.00" y1="390.00" x2="470.00" y2="390.00" stroke="#212121" stroke-width="2"><title>roof-main-eave-front EAVE roof-main-plane-front</title></line>
<line x1="470.00" y1="30.00" x2="30.00" y2="30.00" stroke="#212121" stroke-width="2"><title>roof-main-eave-rear EAVE roof-main-plane-rear</title></line>
<defs><marker id="fall" markerWidth="6" markerHeight="6" refX="5" refY="3" orient="auto"><path d="M0,0 L6,3 L0,6 z" fill="#37474f"/></marker></defs>
<line x1="30" y1="436" x2="58" y2="436" stroke="#b3261e" stroke-width="3"/><text x="64" y="440" font-size="10">ridge</text>
<line x1="170" y1="436" x2="198" y2="436" stroke="#d9822b" stroke-width="2.5"/><text x="204" y="440" font-size="10">hip</text>
<line x1="310" y1="436" x2="338" y2="436" stroke="#1f5fbf" stroke-width="3"/><text x="344" y="440" font-size="10">valley</text>
<line x1="450" y1="436" x2="478" y2="436" stroke="#2e7d32" stroke-width="2"/><text x="484" y="440" font-size="10">verge</text>
<line x1="30" y1="456" x2="58" y2="456" stroke="#212121" stroke-width="2"/><text x="64" y="460" font-size="10">eave</text>
<line x1="170" y1="456" x2="198" y2="456" stroke="#6a1b9a" stroke-width="3" stroke-dasharray="6 3"/><text x="204" y="460" font-size="10">roof step</text>
<line x1="310" y1="456" x2="338" y2="456" stroke="#757575" stroke-width="1.5"/><text x="344" y="460" font-size="10">boundary</text>
<line x1="450" y1="456" x2="478" y2="456" stroke="#8d6e63" stroke-width="2" stroke-dasharray="4 2"/><text x="484" y="460" font-size="10">abutment</text>
<text x="30" y="510.00" font-size="10" fill="#37474f">carport-roof: SHED, 1 planes, 0 ridges, 0 hips, 0 valleys, 0 dormers | roof-main: GABLE, 2 planes, 1 ridges, 0 hips, 0 valleys, 0 dormers</text>
</svg>
