<svg xmlns="http://www.w3.org/2000/svg" viewBox="0 0 853 853" width="853" height="853">
<title>h2-dom-w-tunbergiach — plan frame</title>
<rect x="0" y="0" width="853" height="853" fill="#ffffff"/>
<rect x="0" y="0" width="853" height="853" stroke="#cccccc" fill="none" stroke-width="1"/>
<rect x="132" y="175" width="560" height="478" id="extent" stroke="#d11fa0" fill="none" stroke-width="2"/>
<rect x="132" y="185.5" width="560" height="456" id="envelope" stroke="#00a0b0" fill="none" stroke-width="1.5" stroke-dasharray="6 3"/>
<line x1="132" y1="0" x2="132" y2="853" stroke="#e0b0e0" fill="none" stroke-width="0.5"/>
<line x1="349.5" y1="0" x2="349.5" y2="853" stroke="#e0b0e0" fill="none" stroke-width="0.5"/>
<line x1="411.98" y1="0" x2="411.98" y2="853" stroke="#e0b0e0" fill="none" stroke-width="0.5"/>
<line x1="473.63" y1="0" x2="473.63" y2="853" stroke="#e0b0e0" fill="none" stroke-width="0.5"/>
<line x1="692" y1="0" x2="692" y2="853" stroke="#e0b0e0" fill="none" stroke-width="0.5"/>
<line x1="0" y1="185.5" x2="853" y2="185.5" stroke="#e0b0e0" fill="none" stroke-width="0.5"/>
<line x1="0" y1="300" x2="853" y2="300" stroke="#e0b0e0" fill="none" stroke-width="0.5"/>
<line x1="0" y1="353.5" x2="853" y2="353.5" stroke="#e0b0e0" fill="none" stroke-width="0.5"/>
<line x1="0" y1="454" x2="853" y2="454" stroke="#e0b0e0" fill="none" stroke-width="0.5"/>
<line x1="0" y1="485" x2="853" y2="485" stroke="#e0b0e0" fill="none" stroke-width="0.5"/>
<line x1="0" y1="510.5" x2="853" y2="510.5" stroke="#e0b0e0" fill="none" stroke-width="0.5"/>
<line x1="0" y1="578" x2="853" y2="578" stroke="#e0b0e0" fill="none" stroke-width="0.5"/>
<line x1="0" y1="641.5" x2="853" y2="641.5" stroke="#e0b0e0" fill="none" stroke-width="0.5"/>
</svg>
